<svg xmlns="http://www.w3.org/2000/svg" width="54" height="60" viewBox="0 0 54 60">
    <path fill="#FFF" fill-rule="evenodd" d="M30.473.927a6.965 6.965 0 0 0-6.947 0L3.473 12.465A6.92 6.92 0 0 0 0 18.461V41.54a6.918 6.918 0 0 0 3.473 5.995l20.053 11.538a6.958 6.958 0 0 0 6.947 0l20.054-11.538A6.918 6.918 0 0 0 54 41.539V18.46a6.92 6.92 0 0 0-3.473-5.996L30.473.927zm3.361 29.64l.703-5.084H29.14v-3.246c0-1.472.438-2.475 2.7-2.475l2.886-.001v-4.547c-.5-.062-2.212-.2-4.204-.2-4.16 0-7.008 2.369-7.008 6.72v3.749H18.81v5.083h4.705v13.045h5.626V30.566h4.693z"/>
</svg>
