<svg xmlns="http://www.w3.org/2000/svg" width="54" height="60" viewBox="0 0 54 60">
    <path fill="#FFF" fill-rule="evenodd" d="M30.473.927a6.965 6.965 0 0 0-6.947 0L3.473 12.465A6.92 6.92 0 0 0 0 18.461V41.54a6.918 6.918 0 0 0 3.473 5.995l20.053 11.538a6.958 6.958 0 0 0 6.947 0l20.054-11.538A6.918 6.918 0 0 0 54 41.539V18.46a6.92 6.92 0 0 0-3.473-5.996L30.473.927zm7.981 18.782a3.059 3.059 0 0 0-1.519-.406h-18.68c-.553 0-1.071.15-1.52.406l10.86 10.216 10.86-10.216zm-22.814 1.06a2.977 2.977 0 0 0-.447 1.564v13.634c0 .527.138 1.023.38 1.456l8.089-9.108-8.022-7.546zm23.977 16.654c.242-.432.38-.929.38-1.455V22.333c0-.572-.166-1.107-.447-1.564l-8.022 7.547 8.089 9.107zm-12.022-5.408l-2.823-2.655-8.143 9.168c.472.295 1.029.47 1.626.47h18.68c.597 0 1.153-.175 1.625-.47l-8.143-9.168-2.822 2.655z"/>
</svg>
