<svg xmlns="http://www.w3.org/2000/svg" width="54" height="60" viewBox="0 0 54 60">
    <path fill="#FFF" fill-rule="evenodd" d="M30.473.927a6.965 6.965 0 0 0-6.947 0L3.473 12.465A6.92 6.92 0 0 0 0 18.461V41.54a6.918 6.918 0 0 0 3.473 5.995l20.053 11.538a6.958 6.958 0 0 0 6.947 0l20.054-11.538A6.918 6.918 0 0 0 54 41.539V18.46a6.92 6.92 0 0 0-3.473-5.996L30.473.927zM22.981 42.36c10.647 0 16.471-8.871 16.471-16.565 0-.252 0-.502-.017-.752a11.816 11.816 0 0 0 2.888-3.014c-1.056.471-2.177.78-3.325.916a5.836 5.836 0 0 0 2.545-3.22 11.562 11.562 0 0 1-3.676 1.413 5.77 5.77 0 0 0-6.955-1.145 5.839 5.839 0 0 0-2.91 6.455 16.404 16.404 0 0 1-11.93-6.082c-1.537 2.66-.752 6.063 1.792 7.77a5.721 5.721 0 0 1-2.628-.728v.074c.001 2.771 1.944 5.158 4.645 5.707a5.748 5.748 0 0 1-2.614.1 5.8 5.8 0 0 0 5.408 4.043 11.574 11.574 0 0 1-8.567 2.413 16.321 16.321 0 0 0 8.873 2.61v.005z"/>
</svg>
