<svg xmlns="http://www.w3.org/2000/svg" width="54" height="60" viewBox="0 0 54 60">
    <path fill="#FFF" fill-rule="evenodd" d="M30.473.927a6.965 6.965 0 0 0-6.947 0L3.473 12.465A6.92 6.92 0 0 0 0 18.461V41.54a6.918 6.918 0 0 0 3.473 5.995l20.053 11.538a6.958 6.958 0 0 0 6.947 0l20.054-11.538A6.918 6.918 0 0 0 54 41.539V18.46a6.92 6.92 0 0 0-3.473-5.996L30.473.927zm-12.35 15.728c1.618 0 2.929 1.287 2.929 2.869 0 1.583-1.311 2.869-2.928 2.869-1.623 0-2.931-1.286-2.931-2.87 0-1.581 1.308-2.868 2.93-2.868zm-2.53 23.837h5.058V24.57h-5.057v15.92zM23.82 24.57h4.842v2.176h.07c.673-1.253 2.322-2.572 4.78-2.572 5.11 0 6.056 3.296 6.056 7.584v8.733h-5.046V32.75c0-1.847-.038-4.222-2.627-4.222-2.628 0-3.03 2.01-3.03 4.088v7.875H23.82v-15.92z"/>
</svg>
