<svg xmlns="http://www.w3.org/2000/svg" xmlns:xlink="http://www.w3.org/1999/xlink" width="127" height="134" viewBox="0 0 127 134">
    <defs>
        <path id="b" d="M42.12 1.296a9.54 9.54 0 0 0-9.602 0L4.801 17.436A9.7 9.7 0 0 0 0 25.822v32.28c0 3.459 1.83 6.655 4.8 8.385l27.718 16.14a9.53 9.53 0 0 0 9.603 0l27.718-16.14a9.698 9.698 0 0 0 4.8-8.386V25.822a9.7 9.7 0 0 0-4.8-8.386L42.121 1.296z"/>
        <filter id="a" width="200%" height="200%" x="-50%" y="-50%" filterUnits="objectBoundingBox">
            <feOffset dy="12" in="SourceAlpha" result="shadowOffsetOuter1"/>
            <feGaussianBlur in="shadowOffsetOuter1" result="shadowBlurOuter1" stdDeviation="13"/>
            <feColorMatrix in="shadowBlurOuter1" values="0 0 0 0 0.231372549 0 0 0 0 0.349019608 0 0 0 0 0.596078431 0 0 0 0.3 0"/>
        </filter>
    </defs>
    <g fill="none" fill-rule="evenodd">
        <g transform="translate(26 13)">
            <use fill="#000" filter="url(#a)" xlink:href="#b"/>
            <use fill="#3B5998" xlink:href="#b"/>
        </g>
        <path fill="#FEFEFE" d="M72.766 55.754l.971-7.11H66.28v-4.54c0-2.06.605-3.462 3.732-3.462L74 40.64v-6.36c-.69-.086-3.057-.28-5.811-.28-5.75 0-9.686 3.314-9.686 9.4v5.243H52v7.111h6.503V74h7.777V55.754h6.486z"/>
    </g>
</svg>
